{"title":"The.Martian.2015.BRRip.720p.x264.AAC-PRiSTiNE [P2PDL]","uid":13110629,"size":1016342135,"categoryP":"video","categoryS":"hd___movies","magnet":"?xt=urn:btih:2d92b3ef1c13aa21bb2180c7a01d853e6444c74a&amp;dn=The.Martian.2015.BRRip.720p.x264.AAC-PRiSTiNE+%5BP2PDL%5D&amp;tr=udp%3A%2F%2Ftracker.leechers-paradise.org%3A6969&amp;tr=udp%3A%2F%2Fzer0day.ch%3A1337&amp;tr=udp%3A%2F%2Fopen.demonii.com%3A1337&amp;tr=udp%3A%2F%2Ftracker.coppersurfer.tk%3A6969&amp;tr=udp%3A%2F%2Fexodus.desync.com%3A6969","seeders":1,"leechers":3,"uploader":"VYTOP2PDL","files":7,"time":1451470052,"description":"____    ____ ____    ____ .___________.  ______   \r\n     /   /      /   / |           | /  __    \r\n    /   /      /   /  `---|  |----`|  |  |  | \r\n        /     _    _/       |  |     |  |  |  | \r\n       /        |  |         |  |     |  `--'  | \r\n    __/         |__|         |__|      ______/  \r\n                                                  \r\nPresenting Small Encodes with quality for years!\r\n                                                                                                   \r\n                                                                                                   \r\n\r\nThe.Martian.2015.BRRip.720p.x264.AAC-PRiSTiNE\r\n\r\n\r\nGenre: Adventure, Drama, Sci-Fi  \nhttp://www.imdb.com/title/tt3659388/\r\n\r\n\r\nFormat                                   : MPEG-4\r\nFile size                                : 951 MiB\r\nDuration                                 : 2h 21mn\r\nOverall bit rate                         : 939 Kbps\r\n\r\nVideo\r\nFormat                                   : AVC\r\nBit rate                                 : 856 Kbps\r\nWidth                                    : 1 264 pixels\r\nHeight                                   : 528 pixels\r\nDisplay aspect ratio                     : 2.40:1\r\nFrame rate mode                          : Constant\r\nFrame rate                               : 23.976 fps\r\nBit depth                                : 8 bits\r\nStream size                              : 867 MiB (91%)\r\nWriting library                          : x264\r\n\r\nAudio\r\nFormat                                   : AAC\r\nBit rate mode                            : Variable\r\nBit rate                                 : 79.8 Kbps\r\nChannel(s)                               : 2 channels\r\nChannel positions                        : Front: L R\r\nSampling rate                            : 48.0 KHz\r\nStream size                              : 80.9 MiB (9%)\r\nLanguage                                 : English\r\n\r\nSubtitle                                 : Yes (English)\r\n\r\nScreen Shots: (Click to view)\r\n \nhttp://ititli.com/QQ \nhttp://ititli.com/QS \nhttp://ititli.com/QZ \nhttp://ititli.com/Qc \nhttp://ititli.com/Qi \nhttp://ititli.com/Qp \nhttp://ititli.com/QD \nhttp://ititli.com/Qa \nhttp://ititli.com/Qb \nhttp://ititli.com/Qz \nhttp://ititli.com/QI \nhttp://ititli.com/QO\r\n\r\n----------------------------------------------------------------------------------------------------\r\n\r\n\r\nSupport us by donating BC - 1FgwdzPsd1y25Gea8wP1qni35uGCtmkRCD\r\n\r\nSend some love!\r\nFind us and join us!","torrent":{"xt":"urn:btih:2d92b3ef1c13aa21bb2180c7a01d853e6444c74a","amp;dn":"The.Martian.2015.BRRip.720p.x264.AAC-PRiSTiNE+%5BP2PDL%5D","amp;tr":["udp%3A%2F%2Ftracker.leechers-paradise.org%3A6969","udp%3A%2F%2Fzer0day.ch%3A1337","udp%3A%2F%2Fopen.demonii.com%3A1337","udp%3A%2F%2Ftracker.coppersurfer.tk%3A6969","udp%3A%2F%2Fexodus.desync.com%3A6969"],"infoHash":"2d92b3ef1c13aa21bb2180c7a01d853e6444c74a","infoHashBuffer":{"type":"Buffer","data":[45,146,179,239,28,19,170,33,187,33,128,199,160,29,133,62,100,68,199,74]},"announce":[],"urlList":[]}}